<svg xmlns="http://www.w3.org/2000/svg" width="320" height="420" viewBox="0 0 320 420" role="img" aria-labelledby="title desc">
  <title id="title">Karen grandma half-body mascot</title>
  <desc id="desc">Sassy grandma mascot with glasses, cardigan, earrings, and a stern expression.</desc>
  <defs>
    <radialGradient id="hair" cx="50%" cy="22%" r="65%">
      <stop offset="0%" stop-color="#fff9e8"/>
      <stop offset="58%" stop-color="#e6dac4"/>
      <stop offset="100%" stop-color="#b9ad9b"/>
    </radialGradient>
    <linearGradient id="cardigan" x1="54" x2="266" y1="244" y2="404">
      <stop offset="0%" stop-color="#78c6ba"/>
      <stop offset="100%" stop-color="#34796f"/>
    </linearGradient>
    <radialGradient id="cheek" cx="50%" cy="50%" r="50%">
      <stop offset="0%" stop-color="#e98b77" stop-opacity=".55"/>
      <stop offset="100%" stop-color="#e98b77" stop-opacity="0"/>
    </radialGradient>
    <filter id="shadow" x="-20%" y="-20%" width="140%" height="145%">
      <feDropShadow dx="0" dy="12" stdDeviation="8" flood-color="#000" flood-opacity=".32"/>
    </filter>
  </defs>
  <rect width="320" height="420" rx="26" fill="#17130f"/>
  <path d="M24 375c42-35 86-51 134-51s94 16 138 51v45H24v-45z" fill="#0e0c0a" opacity=".55"/>
  <g filter="url(#shadow)">
    <path d="M72 278c-24 22-38 59-42 112h76l18-104-52-8z" fill="#4e9f92"/>
    <path d="M248 278c24 22 38 59 42 112h-76l-18-104 52-8z" fill="#34796f"/>
    <path d="M72 252c18-23 47-34 88-34s70 11 88 34l20 152H52l20-152z" fill="url(#cardigan)"/>
    <path d="M124 244c14 13 58 13 72 0l-14 160h-44l-14-160z" fill="#fff3e1"/>
    <path d="M139 272h42M142 304h36M144 336h32" stroke="#d8c5ae" stroke-width="5" stroke-linecap="round"/>
    <circle cx="160" cy="292" r="5" fill="#d94c42"/>
    <circle cx="160" cy="326" r="5" fill="#d94c42"/>
    <path d="M112 224c13 18 83 18 96 0v39c-22 18-74 18-96 0v-39z" fill="#efb88f"/>
    <path d="M82 128c0-52 34-88 78-88s78 36 78 88c0 61-29 103-78 103s-78-42-78-103z" fill="#f0bc92"/>
    <path d="M78 139c-15-2-26 8-24 24 2 17 17 28 34 22l-2-45-8-1z" fill="#efb88f"/>
    <path d="M242 139c15-2 26 8 24 24-2 17-17 28-34 22l2-45 8-1z" fill="#efb88f"/>
    <circle cx="84" cy="84" r="30" fill="url(#hair)"/>
    <circle cx="110" cy="50" r="33" fill="url(#hair)"/>
    <circle cx="151" cy="38" r="35" fill="url(#hair)"/>
    <circle cx="194" cy="51" r="33" fill="url(#hair)"/>
    <circle cx="232" cy="86" r="31" fill="url(#hair)"/>
    <circle cx="72" cy="126" r="28" fill="url(#hair)"/>
    <circle cx="248" cy="126" r="28" fill="url(#hair)"/>
    <path d="M78 122c5-38 30-65 74-75 17 21 45 34 83 36-12-34-40-55-75-55-51 0-89 40-82 94z" fill="url(#hair)"/>
    <ellipse cx="119" cy="148" rx="23" ry="25" fill="#fff9ef"/>
    <ellipse cx="201" cy="148" rx="23" ry="25" fill="#fff9ef"/>
    <ellipse cx="119" cy="148" rx="24" ry="25" fill="none" stroke="#16110e" stroke-width="6"/>
    <ellipse cx="201" cy="148" rx="24" ry="25" fill="none" stroke="#16110e" stroke-width="6"/>
    <path d="M143 146c10-5 24-5 34 0M95 146H78M225 146h19" stroke="#16110e" stroke-width="6" stroke-linecap="round"/>
    <circle cx="123" cy="151" r="5" fill="#221611"/>
    <circle cx="197" cy="151" r="5" fill="#221611"/>
    <path d="M95 125l43 13M183 138l42-13" stroke="#5a2b23" stroke-width="9" stroke-linecap="round"/>
    <path d="M160 145c-6 16-11 28-2 34 5 3 13 1 17-3" fill="none" stroke="#a6624f" stroke-width="5" stroke-linecap="round"/>
    <ellipse cx="106" cy="178" rx="22" ry="12" fill="url(#cheek)"/>
    <ellipse cx="215" cy="178" rx="22" ry="12" fill="url(#cheek)"/>
    <path d="M128 202c22-12 43-12 64 0" fill="none" stroke="#6f2b25" stroke-width="8" stroke-linecap="round"/>
    <circle cx="55" cy="178" r="9" fill="#f4c75f"/>
    <circle cx="265" cy="178" r="9" fill="#f4c75f"/>
    <path d="M39 332c19-4 36 2 48 17M281 332c-20-4-37 2-49 17" stroke="#efb88f" stroke-width="26" stroke-linecap="round"/>
    <path d="M66 320l-7-39M254 320l7-39" stroke="#2f6f66" stroke-width="32" stroke-linecap="round"/>
  </g>
</svg>
