<svg xmlns="http://www.w3.org/2000/svg" width="256" height="256" viewBox="0 0 256 256" role="img" aria-labelledby="title desc">
  <title id="title">Karen pixel granny logo</title>
  <desc id="desc">Cute pixel granny face with glasses and teal sweater.</desc>
  <rect width="256" height="256" rx="32" fill="#17130f"/>
  <rect x="40" y="32" width="176" height="176" rx="18" fill="#d9d2c3"/>
  <rect x="56" y="48" width="144" height="40" fill="#eee7d8"/>
  <rect x="64" y="88" width="128" height="96" fill="#f5c6a5"/>
  <rect x="72" y="96" width="32" height="32" fill="#ffffff"/>
  <rect x="152" y="96" width="32" height="32" fill="#ffffff"/>
  <rect x="80" y="104" width="16" height="16" fill="#2b211c"/>
  <rect x="160" y="104" width="16" height="16" fill="#2b211c"/>
  <rect x="104" y="112" width="48" height="8" fill="#5b3a2e"/>
  <rect x="112" y="144" width="32" height="8" fill="#5b3a2e"/>
  <rect x="96" y="168" width="64" height="16" fill="#5b3a2e"/>
  <rect x="56" y="184" width="144" height="32" fill="#7fc7b9"/>
  <rect x="40" y="208" width="176" height="16" fill="#4b9f92"/>
  <rect x="184" y="136" width="16" height="16" fill="#ff5a6f"/>
  <rect x="200" y="120" width="16" height="16" fill="#ff5a6f"/>
  <rect x="56" y="32" width="16" height="16" fill="#ffffff" opacity=".55"/>
</svg>
